<svg xmlns="http://www.w3.org/2000/svg" id="Calque_1" data-name="Calque 1" viewBox="0 0 123.7 141.3"><defs><clipPath id="clip-path" transform="translate(7.2 -12)"><path fill="none" d="M77 116.7A229.6 229.6 0 0085 93.2l-58.6-.5a170.3 170.3 0 008.3 24z"/></clipPath><style>.cls-3{fill:none;stroke:#010101;stroke-miterlimit:10;stroke-width:1px}</style></defs><path d="M30 13.8c3.5 2 17 2.2 23.8 2h4c6.8.2 20.3 0 23.7-2" class="cls-3" transform="translate(7.2 -12)"/><path d="M55.8 153h2a29.4 29.4 0 003.1-.3 28.4 28.4 0 007.3-2 13.5 13.5 0 003.8-2.5c2-1.9 3.7-6.5 1.2-8.8-2-1.8-4.1-3.4-4.1-3.4s-.9-.5-.2-1.8l2.4-5q3-6.2 5.5-12.6c2.3-5.6 4.4-11.2 6.3-17a123.4 123.4 0 004.5-18.1 53.5 53.5 0 00.8-12.5 28.6 28.6 0 00-.4-3.5 18 18 0 00-1-3.6 16.4 16.4 0 00-2.3-3.9l-.5-.6a39 39 0 00-5.6-5.5l-.8-.6-2.1-1.5-1.6-1.1a9.9 9.9 0 01-1.3-1.2 8 8 0 01-.9-1.2c-1.7-2.7-2-6.3-2.1-9.4s0-.1 0-.1a45.2 45.2 0 01.2-7s-.8-8.8 9.6-11.4c0 0 2.1 0 2-4.6-.1-1.4-16-1.6-23.8-1.6h-4c-7.7 0-23.7.2-23.8 1.6-.2 4.6 2 4.6 2 4.6 10.4 2.6 9.6 11.4 9.6 11.4a45.2 45.2 0 01.3 7c-.2 3.6-.5 8-3 10.7-1.7 1.8-4 2.8-5.8 4.3a38.9 38.9 0 00-5.6 5.5 17.2 17.2 0 00-3.8 8.2c-1 5.2-.5 10.7.3 16a124.7 124.7 0 004.5 18.1c1.9 5.8 4 11.4 6.3 17q2.6 6.4 5.5 12.6l2.4 5c.7 1.2-.2 1.8-.2 1.8s-2 1.6-4 3.4c-2.6 2.3-1 6.9 1.1 8.8a13.6 13.6 0 003.8 2.4 28.2 28.2 0 007.3 2.1 29.6 29.6 0 003.1.3h2" class="cls-3" transform="translate(7.2 -12)"/><path d="M36 49.8c0 1.7.4 2.8 5 3.5 2.8.4 8.8.7 12.8.8" class="cls-3" transform="translate(7.2 -12)"/><path d="M33.8 51.3c0 1.6 1.2 3.5 5.8 4.2 3 .5 9.8.8 14.2 1h4a169 169 0 0014.2-1c4.6-.7 5.8-2.6 5.8-4.2" class="cls-3" transform="translate(7.2 -12)"/><path d="M41 53.3c2.9.4 8.8.7 12.8.8h4c4-.1 10-.4 12.9-.9M39.7 46.3l-.4-.3a1.8 1.8 0 01-.7-2s1-2.9-.7-11.2A13.7 13.7 0 0034 25c-4.4-4-12.2-4.2-15.8 1C16 29.8 16 34.9 17 38.9c0 0 1.9 6 3.4 9.5l.3.8a2.8 2.8 0 01.1.3l.3.8.2.5v.1l.2.5.3 1.2.2.5.2.7a305 305 0 011.7 5.6l.2.8.5 1.8" class="cls-3" transform="translate(7.2 -12)"/><path d="M41 43.2zm-5.5-.3zM27 58c-1.2-4.1-2.6-8.9-3.5-11-1.3-3-3-8.2-3.3-9-.8-3.2-1-7.4.8-10a5.8 5.8 0 014.3-2.5 8.6 8.6 0 016.6 2 10.5 10.5 0 013 6c1.2 6.2.8 9 .7 9.4a5 5 0 002 5.7h.1M23.2 69l-.5-2a248.6 248.6 0 00-8.8-27l-.1-.3c-.7-2.8-1.9-9.9 1.7-15.2a12.3 12.3 0 018.9-5.4 15 15 0 0111.8 3.7 16.8 16.8 0 014.9 9.4c.3 1.8.6 3.3.7 4.7" class="cls-3" transform="translate(7.2 -12)"/><path d="M24.7 61.9l-.5-1.8-.2-.8a305 305 0 00-1.7-5.6L22 53l-.1-.5-.4-1.1v-.1l-.1-.4v-.1l-.2-.6-.3-.8a2.8 2.8 0 00-.1-.3l-.3-.8c-1.6-3.5-3.5-9.5-3.5-9.5-1-4-1-9 1.3-12.6 3.5-5.3 11.3-5 15.7-1a13.7 13.7 0 014 7.6c1.6 8.3.6 11.1.6 11.1a1.8 1.8 0 00.8 2l.4.3M57.8 54.1c4-.1 10-.4 12.9-.9 4.5-.7 5-1.7 5-3.4" class="cls-3" transform="translate(7.2 -12)"/><path d="M87 61.9l.5-1.8.2-.8a410 410 0 011.7-5.6l.2-.7c0-.3 0-.3.2-.5 0-.4.2-.8.3-1.1a.5.5 0 000-.1l.2-.4a.7.7 0 000-.1c0-.2 0-.4.2-.6s.1-.5.2-.8l.1-.3.3-.8c1.6-3.5 3.5-9.5 3.5-9.5 1-4 1-9-1.3-12.6-3.5-5.3-11.3-5-15.7-1a13.6 13.6 0 00-4 7.6C72 41 73 43.9 73 43.9a1.8 1.8 0 01-.8 2l-.4.3" class="cls-3" transform="translate(7.2 -12)"/><path d="M76.1 43zm-2 5.7l.1-.1a5 5 0 002-5.6c-.2-.5-.6-3.2.7-9.5a10.5 10.5 0 013-5.9 8.6 8.6 0 016.6-2 5.8 5.8 0 014.2 2.4c1.8 2.6 1.6 6.8.9 10-.3.8-2 6-3.4 9-.8 2-2.3 6.9-3.5 11m-15-21.2l.9-4.7a16.8 16.8 0 014.9-9.4A15 15 0 0187.3 19a12.3 12.3 0 018.8 5.4c3.6 5.3 2.4 12.4 1.8 15.2l-.1.2c-.1.3-2 6.1-3.6 9.8C93 52.5 90 63 88.9 66.9l-.5 2" class="cls-3" transform="translate(7.2 -12)"/><path d="M71.9 46.3l.4-.3a1.8 1.8 0 00.7-2s-1-2.9.7-11.2a13.6 13.6 0 014-7.6c4.4-4 12.2-4.3 15.7 1 2.4 3.5 2.3 8.7 1.3 12.7 0 0-2 5.9-3.5 9.5l-.3.8-.1.3-.3.7-.2.6-.1.5a.5.5 0 010 .1l-.4 1.2-.1.5-.3.7a410 410 0 00-1.7 5.6l-.2.7-.5 1.8" class="cls-3" transform="translate(7.2 -12)"/><g clip-path="url(#clip-path)"><path d="M97.6 93.8l8.1-1.6A217.8 217.8 0 0180 107c3.4-.3 5.2-.5 8.6-1l6.6-3.7-5.7.9a199.5 199.5 0 0019-11.6l8-2" class="cls-3" transform="translate(7.2 -12)"/><path d="M96.3 107.7l-8.7 1.2a221.3 221.3 0 0025.6-15.6l-8.2 1.8a200 200 0 01-6.2 4l5.5-1a204.1 204.1 0 01-19.6 11.1 212.2 212.2 0 01-14.4 1.3M81.2 96c3.3-.3 5-.5 8.2-1a217.5 217.5 0 01-26.6 13c3.4 0 5.2-.1 8.6-.3a212 212 0 006.8-3.2l-5.7.4a194.4 194.4 0 0019.6-10.2 188 188 0 0013.6-2.5" class="cls-3" transform="translate(7.2 -12)"/><path d="M79 109.8c-3.5.3-5.3.5-8.8.6a218.3 218.3 0 0026.6-13.8c-3.3.6-5 .9-8.3 1.3l-6.5 3.5 5.6-.7a203.2 203.2 0 01-20.3 9.9l-8.7.2h-5.8M64.7 97.2c3.3 0 5-.2 8.3-.4a215.1 215.1 0 01-27.5 11.1l8.7.3 7-2.8h-5.7a194.5 194.5 0 0020.2-8.9A206 206 0 0089.4 95" class="cls-3" transform="translate(7.2 -12)"/><path d="M61.5 110.8h-8.7a220.3 220.3 0 0027.4-12l-8.3.7-6.7 3 5.6-.3a198.8 198.8 0 01-20.9 8.4 211.3 211.3 0 01-14.5-.7M48.2 97.3h8.3a214.3 214.3 0 01-28.2 9.4l8.6.7c3-.8 4.4-1.3 7.2-2.2l-5.7-.3a192.3 192.3 0 0020.8-7.5 227.2 227.2 0 0013.8-.6" class="cls-3" transform="translate(7.2 -12)"/><path d="M44.1 110.6a211 211 0 01-8.7-.6 215.6 215.6 0 0028.1-10l-8.3.1-6.9 2.6 5.6.1a199.4 199.4 0 01-21.4 7 149.7 149.7 0 01-14.4-1.8M31.7 96.2l8.3.7a213.3 213.3 0 01-28.8 7.3l8.6 1.4 7.3-1.8-5.7-.7A190.9 190.9 0 0042.7 97l8.3.3h5.5" class="cls-3" transform="translate(7.2 -12)"/><path d="M26.7 109.2c-3.4-.4-5.2-.6-8.6-1.2a217.4 217.4 0 0028.8-8l-8.4-.5-7 2 5.6.6a196.8 196.8 0 01-21.9 5.5 210 210 0 01-14.3-2.7M15.3 94c3.3.6 5 .8 8.2 1.2a211.6 211.6 0 01-29.2 5.4l8.4 2 7.5-1.3-5.6-1a191.5 191.5 0 0021.6-4.7A189.2 189.2 0 0040 97" class="cls-3" transform="translate(7.2 -12)"/><path d="M9.4 106.6L1 104.9a214.6 214.6 0 0029.3-6.2c-3.3-.3-5-.5-8.3-1l-7.2 1.6 5.6 1a197.4 197.4 0 01-22.3 4" class="cls-3" transform="translate(7.2 -12)"/></g><path d="M26.6 93c17.4 2.3 42 2.4 58.4.2M26 90.7c17.6 2.3 43 2.4 59.7.1M33 112.4a280.3 280.3 0 0045.5.1M34 114.8a281.6 281.6 0 0043.5.1" class="cls-3" transform="translate(7.2 -12)"/></svg>